<?xml version="1.0" encoding="UTF-8" standalone="no"?>
<!-- Created with Inkscape (http://www.inkscape.org/) -->

<svg
   xmlns:dc="http://purl.org/dc/elements/1.1/"
   xmlns:cc="http://creativecommons.org/ns#"
   xmlns:rdf="http://www.w3.org/1999/02/22-rdf-syntax-ns#"
   xmlns:svg="http://www.w3.org/2000/svg"
   xmlns="http://www.w3.org/2000/svg"
   xmlns:xlink="http://www.w3.org/1999/xlink"
   xmlns:sodipodi="http://sodipodi.sourceforge.net/DTD/sodipodi-0.dtd"
   xmlns:inkscape="http://www.inkscape.org/namespaces/inkscape"
   width="512"
   height="512"
   id="svg2"
   version="1.1"
   inkscape:version="0.48.1 r9760"
   sodipodi:docname="New document 1">
  <defs
     id="defs4">
    <linearGradient
       id="linearGradient4514">
      <stop
         style="stop-color:#ffffff;stop-opacity:0.50196081;"
         offset="0"
         id="stop4516" />
      <stop
         id="stop4522"
         offset="0.48979914"
         style="stop-color:#ffffff;stop-opacity:0;" />
      <stop
         style="stop-color:#ffffff;stop-opacity:0.50196081;"
         offset="1"
         id="stop4518" />
    </linearGradient>
    <linearGradient
       inkscape:collect="always"
       xlink:href="#linearGradient4514"
       id="linearGradient4520"
       x1="102.27272"
       y1="355.18182"
       x2="473.48486"
       y2="248.36365"
       gradientUnits="userSpaceOnUse"
       gradientTransform="translate(3.030303,544.15006)" />
  </defs>
  <sodipodi:namedview
     id="base"
     pagecolor="#ffffff"
     bordercolor="#666666"
     borderopacity="1.0"
     inkscape:pageopacity="0.0"
     inkscape:pageshadow="2"
     inkscape:zoom="1.32"
     inkscape:cx="284.86632"
     inkscape:cy="256"
     inkscape:document-units="px"
     inkscape:current-layer="layer2"
     showgrid="false"
     inkscape:window-width="1440"
     inkscape:window-height="900"
     inkscape:window-x="0"
     inkscape:window-y="0"
     inkscape:window-maximized="0" />
  <metadata
     id="metadata7">
    <rdf:RDF>
      <cc:Work
         rdf:about="">
        <dc:format>image/svg+xml</dc:format>
        <dc:type
           rdf:resource="http://purl.org/dc/dcmitype/StillImage" />
        <dc:title></dc:title>
      </cc:Work>
    </rdf:RDF>
  </metadata>
  <g
     inkscape:label="Leaf"
     inkscape:groupmode="layer"
     id="layer1"
     transform="translate(0,-540.36218)"
     style="display:inline">
    <path
       style="fill:none"
       d="m 100.96355,648.32636 c 1.29843,-1.0817 2.87343,-1.95176 3.5,-1.93346 0.62657,0.0183 0.0769,0.9183 -1.22157,2 -1.29843,1.0817 -2.87343,1.95176 -3.5,1.93346 -0.626569,-0.0183 -0.07686,-0.9183 1.22157,-2 z m 97.63921,-3.03132 c -5.43017,-0.73666 -12.12575,-4.15677 -14.48181,-7.39731 -0.81499,-1.12096 -1.37749,-2.1506 -1.25,-2.2881 0.1275,-0.1375 -0.65798,-1.13979 -1.7455,-2.22732 -1.20994,-1.20993 -1.72613,-2.63192 -1.33007,-3.66404 0.40048,-1.04362 0.24985,-1.44112 -0.39506,-1.04254 -1.21145,0.74872 -2.2703,-4.57991 -2.28655,-11.50708 -0.006,-2.58005 -0.43813,-4.95497 -0.96018,-5.27761 -0.52204,-0.32264 -4.21744,1.93858 -8.21198,5.02493 -6.66471,5.14942 -12.83885,9.04992 -12.83885,8.11092 0,-0.21125 2.3625,-1.96236 5.25,-3.89135 2.8875,-1.92899 7.26654,-5.30874 9.73119,-7.51056 3.99573,-3.56962 4.32861,-4.18714 3.07283,-5.70027 -0.77459,-0.93332 -2.72219,-2.37637 -4.32801,-3.20677 -2.10738,-1.08977 -2.77966,-2.04515 -2.41645,-3.43406 0.57046,-2.18142 -0.33701,-2.4968 -2.10296,-0.73084 -0.92455,0.92454 -1.89088,0.53028 -4.28928,-1.75 -4.60306,-4.37637 -6.24067,-7.9707 -4.83133,-10.60407 0.97555,-1.82285 0.90546,-2.05004 -0.46965,-1.52236 -1.21945,0.46795 -1.61634,0.0141 -1.61634,-1.84837 0,-1.35773 0.50888,-2.46861 1.13085,-2.46861 0.73345,0 0.93167,-1.22734 0.56406,-3.49264 -0.33781,-2.08167 -0.0877,-4.00059 0.61916,-4.75 0.65226,-0.69155 1.80981,-3.05736 2.57233,-5.25736 1.52425,-4.39771 6.98822,-10.69553 8.47968,-9.77375 0.51862,0.32052 0.67519,0.14954 0.34795,-0.37996 -0.32725,-0.5295 0.53577,-2.28653 1.91782,-3.90451 1.38205,-1.61798 2.17792,-2.26678 1.76859,-1.44178 -0.58227,1.17359 -0.326,1.13556 1.17767,-0.17473 3.41299,-2.97405 13.74814,-8.05637 20.42189,-10.04248 14.02725,-4.17451 16.60496,-4.79232 24.7484,-5.93153 6.6826,-0.93485 8.59069,-0.92064 9.20202,0.0685 0.57285,0.9269 0.94155,0.80413 1.43326,-0.47726 0.57669,-1.50281 1.65798,-1.64816 8.38917,-1.12772 4.24993,0.3286 11.55215,1.55973 16.22715,2.73585 8.01197,2.01562 12.81883,2.12916 17.5,0.41336 2,-0.73307 2,-0.73307 0,0.95663 -1.9681,1.66274 -1.96411,1.6723 0.25,0.59935 1.2375,-0.59969 2.25,-1.45229 2.25,-1.89465 0,-0.70578 4.3066,-3.12533 5.56283,-3.12533 0.2578,0 -0.96021,1.27675 -2.70668,2.83722 -1.95764,1.74915 -2.88562,3.30608 -2.41977,4.05984 0.5588,0.90416 1.12069,0.7512 2.15716,-0.58722 0.77084,-0.99541 0.24527,0.77632 -1.16795,3.93719 -1.41321,3.16086 -2.82506,8.22336 -3.13744,11.25 -0.31238,3.02663 -0.85439,5.50297 -1.20448,5.50297 -0.35009,0 -0.47073,1.73851 -0.26809,3.86335 0.46371,4.86244 -4.68745,20.49663 -9.27046,28.13665 -1.81461,3.025 -3.61931,6.54207 -4.01045,7.8157 -0.39113,1.27364 -2.13394,3.93191 -3.87291,5.90727 -1.73897,1.97536 -4.51176,5.51008 -6.16176,7.85494 -7.35175,10.44774 -10.98167,14.60181 -15.81901,18.1032 -2.84955,2.06257 -5.52708,4.30349 -5.95007,4.97982 -0.59871,0.95727 -11.04264,4.59376 -19.23092,6.69605 -0.55,0.14121 -3.25,-0.0485 -6,-0.42157 z m -9.807,-13.66638 c -0.25355,-0.97297 -0.47767,-0.41903 -0.49805,1.23097 -0.0204,1.65 0.18707,2.44606 0.46099,1.76903 0.27392,-0.67703 0.2906,-2.02703 0.037,-3 z m 12.307,0.35341 c 0,-0.20765 -0.7875,-0.99515 -1.75,-1.75 -1.58605,-1.24387 -1.62142,-1.2085 -0.37756,0.37756 1.30637,1.66575 2.12756,2.19548 2.12756,1.37244 z m -4,-3.51545 c 0,-0.49116 -0.73865,-1.17646 -1.64144,-1.52289 -1.37247,-0.52667 -1.43434,-0.38034 -0.37755,0.89301 1.44012,1.73524 2.01899,1.91584 2.01899,0.62988 z m 38,-22.1589 c -2.87409,-1.95682 -7,-3.99566 -7,-3.45907 0,0.74895 6.27321,4.50613 7.5,4.49193 0.55,-0.006 0.325,-0.47115 -0.5,-1.03286 z m 16.72917,-12.55226 c -0.3323,-0.33229 -1.1948,-0.36782 -1.91667,-0.079 -0.79773,0.31923 -0.56078,0.55618 0.60417,0.60417 1.05416,0.0434 1.64479,-0.19293 1.3125,-0.52522 z m 16.77083,-48.39583 c 0.99549,-1.1 1.35998,-2 0.80998,-2 -0.55,0 -1.81449,0.9 -2.80998,2 -0.99549,1.1 -1.35998,2 -0.80998,2 0.55,0 1.81449,-0.9 2.80998,-2 z m -146.5,95.60699 c 0,-0.21616 0.675,-0.65203 1.5,-0.96862 0.825,-0.31658 1.5,-0.13972 1.5,0.39301 0,0.53274 -0.675,0.96862 -1.5,0.96862 -0.825,0 -1.5,-0.17686 -1.5,-0.39301 z m 164,-104.99349 c 0,-0.21258 1.32623,-0.58115 2.94719,-0.81906 1.62095,-0.2379 2.71939,-0.064 2.44098,0.3865 -0.49551,0.80176 -5.38817,1.19454 -5.38817,0.43256 z m 13.75,-0.27578 c 0.6875,-0.27742 1.8125,-0.27742 2.5,0 0.6875,0.27741 0.125,0.50438 -1.25,0.50438 -1.375,0 -1.9375,-0.22697 -1.25,-0.50438 z m -20,-1 c 0.6875,-0.27742 1.8125,-0.27742 2.5,0 0.6875,0.27741 0.125,0.50438 -1.25,0.50438 -1.375,0 -1.9375,-0.22697 -1.25,-0.50438 z"
       id="path3906"
       inkscape:connector-curvature="0" />
    <path
       style="fill:#000000;fill-opacity:1;stroke:#000000;stroke-width:6.060606;stroke-miterlimit:4;stroke-opacity:1;stroke-dasharray:none"
       d=""
       id="path4465"
       inkscape:connector-curvature="0"
       transform="translate(0,540.36218)" />
    <path
       style="fill:#000000;fill-opacity:1;stroke:#000000;stroke-width:6.060606;stroke-miterlimit:4;stroke-opacity:1;stroke-dasharray:none"
       d=""
       id="path4467"
       inkscape:connector-curvature="0"
       transform="translate(0,540.36218)" />
    <g
       id="g4495"
       transform="translate(14.393945,7.5757577)">
      <path
         transform="translate(0,540.36218)"
         inkscape:connector-curvature="0"
         id="path4463"
         d="m 43.529492,41.513746 c -3.123745,-3.320458 -6.254454,-8.557072 -5.115844,-8.557072 0.909851,0 4.814223,4.467456 5.815184,6.653841 1.403861,3.066437 1.12048,3.83765 -0.69934,1.903231 l 0,0 z"
         style="fill:#000000;fill-opacity:1;stroke:#000000;stroke-width:3.21285152;stroke-miterlimit:4;stroke-opacity:1;stroke-dasharray:none" />
      <path
         transform="translate(0,540.36218)"
         inkscape:connector-curvature="0"
         id="path4471"
         d="m 472.31818,471.14645 c -0.28442,-0.89613 -0.34667,-1.79979 -0.13834,-2.00812 0.20833,-0.20833 0.6115,0.35441 0.89592,1.25055 0.28442,0.89613 0.34667,1.79979 0.13834,2.00812 -0.20833,0.20833 -0.6115,-0.35441 -0.89592,-1.25055 z"
         style="fill:#000000;fill-opacity:1;stroke:#000000;stroke-width:6.060606;stroke-miterlimit:4;stroke-opacity:1;stroke-dasharray:none" />
      <g
         id="g4489">
        <path
           style="fill:#000000"
           d="m 23.867654,556.34181 c 6.574457,-1.80638 8.852033,-0.56119 16.489422,9.01501 4.873726,6.11099 12.698625,17.75616 17.388666,25.87815 12.780948,22.1336 25.115749,38.09824 51.901818,67.17531 24.0655,26.12386 69.87255,64.39741 73.82148,61.68075 1.13447,-0.78048 4.61331,-10.4544 7.73076,-21.49765 7.1937,-25.48303 19.64976,-41.00586 39.49638,-49.22052 23.9146,-9.89846 57.85206,-4.80055 88.17733,13.24559 19.66064,11.69973 48.98803,41.86963 57.55736,59.21076 2.38842,4.8333 6.64884,11.36232 9.4676,14.50893 2.81874,3.14662 8.8622,13.67717 13.42992,23.40124 4.56771,9.72405 11.64245,24.46269 15.72168,32.75251 11.07919,22.51534 18.56668,54.38299 19.4035,82.58386 0.95537,32.19579 3.30341,40.08472 16.78483,56.39344 6.10534,7.38573 13.70629,20.47438 16.89097,29.08589 6.36374,17.20776 13.60186,62.97882 10.76206,68.05522 -1.12481,2.0106 -2.19877,1.7754 -2.8878,-0.6325 -0.93522,-3.2676 -1.34985,-3.1327 -2.80999,0.9147 -1.23385,3.42 -2.7322,-0.8285 -5.35693,-15.1896 -2.00415,-10.9658 -6.67372,-27.63883 -10.37688,-37.05123 -11.53605,-29.32207 -27.2537,-33.92766 -88.60799,-25.96398 -31.88505,4.13863 -63.39675,2.20454 -87.89652,-5.39474 -8.47985,-2.63028 -16.81822,-4.39756 -18.52971,-3.92732 -1.71151,0.47027 -10.86777,-2.46787 -20.34726,-6.52916 -9.4795,-4.0613 -22.45939,-9.15703 -28.84426,-11.32384 -22.24694,-7.54987 -43.85413,-17.96137 -52.64965,-25.36942 -4.87092,-4.1025 -13.1122,-10.29072 -18.31397,-13.75157 -11.8671,-7.89545 -33.20687,-40.31406 -38.06299,-57.82399 -5.292175,-19.08278 0.10321,-46.92139 11.99277,-61.87812 12.09627,-15.21668 16.30294,-18.09682 36.67648,-25.11092 9.46626,-3.25902 17.71145,-6.80447 18.32267,-7.87883 0.61121,-1.07435 -4.47203,-5.94348 -11.2961,-10.82036 C 124.88425,695.85289 72.34804,639.23752 47.411892,599.65365 39.794861,587.56231 29.915364,574.23594 25.457425,570.03949 14.910371,560.11097 14.763236,558.84332 23.867654,556.34181 z m 18.582225,24.8373 c 2.463319,3.08384 3.413266,3.30854 2.788833,0.65959 -0.52098,-2.20952 -2.59543,-5.48933 -4.610158,-7.28844 -4.464043,-3.98628 -3.313779,0.2002 1.821325,6.62885 z M 123.76802,851.5422 c 19.24207,29.54352 51.40087,51.95681 95.35072,66.45536 6.89907,2.27593 17.565,6.54693 23.70204,9.49115 6.13706,2.94422 17.10188,6.17142 24.36629,7.17155 7.2644,1.00013 16.75199,3.31005 21.08353,5.1331 15.09115,6.35156 54.84948,8.09715 86.10388,3.78039 16.65396,-2.30021 36.38243,-3.86477 43.84106,-3.47679 16.57262,0.86201 37.24781,13.03819 40.24098,23.69897 1.12192,4.00045 3.80644,8.71303 5.96306,10.47315 7.86653,6.42028 -6.17359,-23.08367 -18.16528,-38.17282 -14.17215,-17.83265 -17.75375,-29.88352 -18.69863,-62.91506 -0.73069,-25.54324 -7.35345,-54.463 -17.01931,-74.31828 -3.23208,-6.63924 -9.65001,-20.01743 -14.26208,-29.72929 -4.61207,-9.71187 -12.17802,-22.75896 -16.81323,-28.99354 -4.6352,-6.23458 -9.15826,-13.99473 -10.05123,-17.24478 -0.89299,-3.25003 -5.15306,-9.41082 -9.46687,-13.69063 -4.31382,-4.27981 -12.29323,-12.97516 -17.73198,-19.32302 -22.79935,-26.61019 -75.33852,-44.92856 -103.53328,-36.09804 -23.11946,7.24096 -33.83211,20.54115 -42.42742,52.67533 -3.05646,11.42674 -7.1949,21.22587 -9.19657,21.77584 -2.00165,0.54998 -3.72345,2.56687 -3.82621,4.48198 -0.11605,2.16308 -9.40564,6.8249 -24.52473,12.30733 -20.7268,7.51587 -25.61393,10.37128 -32.93783,19.24451 -15.07283,18.26133 -19.84873,39.10446 -14.83171,64.72865 0.43717,2.23255 6.21278,12.37776 12.8348,22.54494 z M 97.275981,656.02527 c 6.788749,7.50066 12.939769,13.47359 13.668949,13.27325 1.18756,-0.3263 -22.494641,-27.74872 -25.709998,-29.77049 -3.904969,-2.45538 1.126474,4.43821 12.041049,16.49724 z M 473.84269,1013.6833 c 0.63898,-1.1233 0.10486,-3.436 -1.18689,-5.1397 -1.42763,-1.8826 -1.88327,-1.0817 -1.16182,2.0421 0.65291,2.8268 1.70982,4.2207 2.34883,3.0976 z"
           id="path4422"
           inkscape:connector-curvature="0" />
        <path
           style="fill:#000000;fill-opacity:1;stroke:#000000;stroke-width:3.21285152;stroke-miterlimit:4;stroke-opacity:1;stroke-dasharray:none"
           d="m 104.49172,122.88712 c -6.861317,-6.95968 -17.089768,-18.67904 -19.35124,-22.1719 -1.190518,-1.838755 -0.321241,-1.765706 1.641983,0.13799 3.406021,3.30274 15.417737,16.99724 21.210447,24.18194 2.89947,3.5962 1.03283,2.451 -3.50119,-2.14803 l 0,0 z"
           id="path4461"
           inkscape:connector-curvature="0"
           transform="translate(0,540.36218)" />
        <g
           id="g4486">
          <path
             transform="translate(0,540.36218)"
             inkscape:connector-curvature="0"
             id="path4445"
             d="m 463.82295,432.0857 c -0.89425,-1.0047 -3.0471,-4.85215 -4.78411,-8.54989 -4.63578,-9.86862 -13.79513,-16.98663 -28.03884,-21.78984 -8.7408,-2.94753 -21.90383,-2.79967 -53.32618,0.59902 -21.33788,2.30794 -26.81339,2.55027 -46.67382,2.06564 -22.88738,-0.5585 -29.91097,-1.47778 -43,-5.62802 -3.575,-1.13355 -12.66521,-3.3828 -20.20046,-4.99833 -8.27139,-1.77335 -18.17813,-4.75702 -25,-7.52941 C 236.58479,383.72922 224.75,379.19041 216.5,376.16861 197.09736,369.06186 173.99613,357.56458 162,349.04446 143.37302,335.81485 126.48625,316.40355 114.33961,294.25897 l -3.83961,-7 0,-16 c 0,-13.0796 0.34482,-17.00389 1.88918,-21.5 4.17975,-12.16858 12.41203,-25.28916 19.73159,-31.44817 4.22207,-3.55263 12.45403,-7.63669 25.0424,-12.42408 18.78297,-7.14322 22.05335,-8.87721 27.1696,-14.40564 6.25208,-6.75576 7.74921,-9.78494 12.25118,-24.7881 6.8902,-22.96214 12.30648,-33.26641 21.94603,-41.75148 5.57246,-4.90508 15.22018,-9.6764 23.52291,-11.63337 18.82573,-4.43725 47.62433,1.88411 73.30966,16.09165 11.62725,6.43148 17.30597,11.1218 30.65072,25.31584 16.47272,17.52109 19.63208,21.49116 23.90835,30.04335 2.06259,4.125 7.01096,12.45 10.99637,18.5 7.2286,10.97325 27.2304,50.20713 32.92448,64.58193 7.46411,18.84327 11.58536,40.07781 13.64618,70.31138 0.82878,12.15868 1.97399,24.13169 2.54492,26.60669 1.94743,8.4422 5.9899,17.49179 10.9442,24.5 10.99159,15.5484 15.32233,22.46358 20.16005,32.19087 4.93242,9.91772 6.07533,14.44481 2.68513,10.63586 l 0,0 z"
             style="fill:#008000;fill-opacity:1;stroke:#000000;stroke-width:8;stroke-miterlimit:4;stroke-opacity:1;stroke-dasharray:none" />
        </g>
      </g>
    </g>
    <rect
       style="fill:url(#linearGradient4520);fill-opacity:1;stroke:none;stroke-width:8;stroke-miterlimit:4;stroke-opacity:1;stroke-dasharray:none"
       id="rect4512"
       width="487.87878"
       height="487.12122"
       x="17.424242"
       y="559.93793" />
  </g>
  <g
     inkscape:groupmode="layer"
     id="layer2"
     inkscape:label="Dhp"
     style="display:inline">
    <text
       xml:space="preserve"
       style="font-size:200px;font-style:normal;font-variant:normal;font-weight:bold;font-stretch:normal;text-align:start;line-height:125%;letter-spacing:0px;word-spacing:0px;writing-mode:lr-tb;text-anchor:start;fill:#f4c430;fill-opacity:1;stroke:#000000;stroke-width:5;stroke-miterlimit:4;stroke-opacity:1;stroke-dasharray:none;font-family:DejaVu Sans;-inkscape-font-specification:DejaVu Sans Bold"
       x="64.830482"
       y="350.88492"
       id="text2985"
       sodipodi:linespacing="125%"
       transform="scale(0.9103863,1.0984348)"><tspan
         sodipodi:role="line"
         id="tspan2987"
         x="64.830482"
         y="350.88492"
         style="stroke-width:5;stroke-miterlimit:4;stroke-dasharray:none">Dhp</tspan></text>
  </g>
</svg>
